<svg width="781" height="467" viewBox="0 0 781 467" fill="none" xmlns="http://www.w3.org/2000/svg">
<g filter="url(#filter0_d_1_6)">
<path d="M98.3675 62.6155C95.8966 60.7994 96.2564 56.3409 96.2564 53.8766C96.2564 45.1278 101.512 40.6535 111.734 37.7245C125.854 33.6784 143.089 34.875 157.789 34.8118C170.258 34.7583 183.36 33.9522 195.665 35.9769C202.389 37.0834 209.904 39.0184 215.546 42.4377C218.06 43.9609 219.879 46.3688 222.656 47.6276C226.125 49.2 233.108 44.0669 236.309 42.9673C245.352 39.8604 253.45 36.1727 262.86 33.7527C290.266 26.7042 318.755 24.1835 347.42 24.3262C363.509 24.4064 378.111 26.4183 388.945 37.1949C390.477 38.7188 389.82 41.1951 391.21 42.4377C392.609 43.689 398.152 33.3515 399.766 31.7403C411.561 19.9691 423.191 12.3618 441.04 8.1212C457.644 4.17628 480.474 2.37742 496.658 8.17415C507.705 12.1307 514.45 17.8218 520.944 26.0209C523.168 28.8288 524.596 25.1707 526.795 23.32C534.055 17.209 541.64 14.0325 551.018 10.875C571.116 4.10843 594.081 3.24416 615.633 4.46712C633.567 5.48476 657.587 9.5553 669.05 22.4198C670.543 24.0952 671.566 25.4853 671.566 27.6096C671.566 29.5311 675.562 28.1392 677.229 28.1392C688.537 28.1392 698.435 30.2483 708.31 35.2355C716.976 39.6121 733.083 48.6935 733.854 58.4309C734.018 60.5037 734.033 63.1522 732.155 64.7329C730.092 66.4699 736.523 67.1968 738.384 68.2811C745.963 72.6976 758.031 80.3417 757.636 89.1464C757.151 99.971 731.66 102.8 722.382 103.829L722.026 103.869C720.461 104.042 712.238 103.41 712.336 105.563C712.475 108.594 716.746 110.902 719.257 112.554C731.963 120.908 739.677 130.516 744.298 143.481C750.474 160.81 744.559 177.89 726.178 187.33C723.471 188.72 715.623 192.782 719.131 195.909C726.54 202.511 738.166 206.152 747.318 210.737C755.259 214.715 757.636 219.24 757.636 226.413C757.636 229.579 755.764 231.397 754.239 234.25C750.597 241.062 749.642 245.997 741.844 250.243C738.831 251.885 729.471 256.741 731.841 260.729C734.986 266.024 745.062 268.734 749.772 272.803C759.542 281.244 766.696 286.04 766.696 298.117C766.696 302.096 768.289 307.933 764.18 310.774C758.776 314.51 751.548 318.474 745.116 320.73C737.591 323.369 731.084 326.689 723.913 329.892C721.949 330.769 709.636 332.886 709.254 334.658C708.781 336.846 715.379 340.738 716.866 341.754C724.628 347.057 731.662 354.831 737.629 361.56C744.162 368.929 748.785 376.404 747.318 385.974C745.478 397.975 724.529 400.964 713.469 401.596C689.742 402.953 665.769 403.487 641.996 403.715C634.405 403.787 639.856 407.994 639.856 412.294C639.856 422.27 626.716 426.621 616.703 429.029C587.606 436.026 555.449 434.738 525.537 434.165C520.949 434.078 490.366 434.958 490.366 427.969C490.366 427.791 490.37 427.62 490.377 427.461C490.374 427.489 490.37 427.517 490.366 427.546C489.963 430.774 483.741 433.229 480.803 434.218C453.883 443.282 422.688 443.518 394.23 442.692C377.76 442.214 361.344 439.542 345.406 436.125C333.186 433.505 321.462 430.38 312.438 422.674C311.429 421.812 309.947 418.847 308.978 416.59C308.637 423.401 286.404 424.535 281.735 424.633C264.328 424.999 246.585 425.091 229.262 423.521C206.305 421.44 181.27 418.571 159.173 412.823C148.85 410.138 118.575 399.607 119.81 385.808C115.538 386.291 111.476 386.387 110.727 386.345C84.1246 384.829 50.1229 369.882 35.2272 351.075C24.6811 337.76 9.59093 316.179 15.2197 299.07C17.1814 293.108 21.0488 290.245 25.7897 286.255C34.9436 278.55 36.5088 267.772 36.1709 257.393C35.5542 238.444 28.1451 220.52 28.3064 201.522C28.3691 194.133 30.8378 188.858 36.2339 183.093C41.8655 177.077 49.0634 178.029 57.3109 177.321C63.8834 176.756 68.3466 177.519 73.8544 179.794C69.7137 175.807 66.7882 171.286 64.2947 166.359C58.3567 154.624 50.2021 134.967 61.0859 123.516C63.2867 121.2 64.3206 120.85 67.4405 119.65C68.4951 119.244 72.9237 118.958 73.3547 118.273C74.3838 116.637 73.458 113.843 72.4109 112.448C69.319 108.327 68.1377 102.977 65.6159 98.5199C62.6752 93.3219 55.0701 80.2368 62.2814 75.0596C68.8734 70.327 76.1462 67.8709 83.673 64.4152C87.507 62.6549 92.8959 62.4192 98.3675 62.6155Z" fill="white"/>
</g>
<defs>
<filter id="filter0_d_1_6" x="0.4" y="0.4" width="780.2" height="466.2" filterUnits="userSpaceOnUse" color-interpolation-filters="sRGB">
<feFlood flood-opacity="0" result="BackgroundImageFix"/>
<feColorMatrix in="SourceAlpha" type="matrix" values="0 0 0 0 0 0 0 0 0 0 0 0 0 0 0 0 0 0 127 0" result="hardAlpha"/>
<feOffset dy="10"/>
<feGaussianBlur stdDeviation="6.8"/>
<feComposite in2="hardAlpha" operator="out"/>
<feColorMatrix type="matrix" values="0 0 0 0 1 0 0 0 0 1 0 0 0 0 1 0 0 0 1 0"/>
<feBlend mode="normal" in2="BackgroundImageFix" result="effect1_dropShadow_1_6"/>
<feBlend mode="normal" in="SourceGraphic" in2="effect1_dropShadow_1_6" result="shape"/>
</filter>
</defs>
</svg>
