<svg width="78" height="109" viewBox="0 0 78 109" fill="none" xmlns="http://www.w3.org/2000/svg">
<g id="Group 1">
<path id="Vector 17" d="M12.0469 95.8946C7.48046 91.3282 1.60938 81.5431 0.957034 74.3673C0.304691 67.1915 4.87109 55.4492 4.87109 45.0117C4.87109 34.5742 0.957035 0.5 0.957035 0.5L20.5273 3.91406L40.75 5.87109H62.2773L78 3.91406C78 3.91406 72.7148 28.7031 70.7578 39.793C68.8008 50.8828 74.6719 62.6251 75.3242 70.4532C75.9766 78.2813 69.4531 90.0235 64.8867 95.8946C60.3203 101.766 49.2305 108.289 40.0977 108.289C30.9648 108.289 16.6133 100.461 12.0469 95.8946Z" fill="#ADF0FF"/>
<path id="Vector 18" d="M42.0548 94.4609C44.0119 95.7656 44.6642 95.7656 46.6212 95.1133C65.2675 88.8979 69.0188 68.6586 64.2345 52.7109C62.348 54.5974 62.93 56.5506 62.9298 59.2344C62.9289 74.9988 49.4255 75.8056 43.3595 87.9375C43.3595 87.9375 40.0977 93.1562 42.0548 94.4609Z" fill="#D8F8FF"/>
</g>
</svg>
