<svg width="76" height="69" viewBox="0 0 76 69" fill="none" xmlns="http://www.w3.org/2000/svg">
<g filter="url(#filter0_d_12_76)">
<path d="M4.39506 7.57908C4.39506 7.57908 2.39506 47.5791 7.39506 55.0791C12.3951 62.5791 39.395 60.5791 52.3951 59.0791C65.3951 57.5791 69.8951 59.0791 71.3951 30.0791C72.895 1.07907 63.2284 6.4124 59.3951 2.57907C50.7284 2.07908 30.4951 0.879084 18.8951 0.0790836C7.29506 -0.720916 4.39506 4.74575 4.39506 7.57908Z" fill="#EB6163"/>
</g>
<path d="M22 19C22.1538 20.2306 23.8889 19.7181 23.8889 20.5C23.8889 21.9412 22.1843 20.3686 22 20" stroke="black" stroke-width="3" stroke-linecap="round"/>
<path d="M22 45C22.1538 46.2306 23.8889 45.7181 23.8889 46.5C23.8889 47.9412 22.1843 46.3686 22 46" stroke="black" stroke-width="3" stroke-linecap="round"/>
<path d="M51 44C51.1538 45.2306 52.8889 44.7181 52.8889 45.5C52.8889 46.9412 51.1843 45.3686 51 45" stroke="black" stroke-width="3" stroke-linecap="round"/>
<path d="M52 21.1041C52.1976 19.5236 54.5256 20.1041 51 20.1041" stroke="black" stroke-width="3" stroke-linecap="round"/>
<defs>
<filter id="filter0_d_12_76" x="0" y="0" width="75.5518" height="68.4976" filterUnits="userSpaceOnUse" color-interpolation-filters="sRGB">
<feFlood flood-opacity="0" result="BackgroundImageFix"/>
<feColorMatrix in="SourceAlpha" type="matrix" values="0 0 0 0 0 0 0 0 0 0 0 0 0 0 0 0 0 0 127 0" result="hardAlpha"/>
<feOffset dy="4"/>
<feGaussianBlur stdDeviation="2"/>
<feComposite in2="hardAlpha" operator="out"/>
<feColorMatrix type="matrix" values="0 0 0 0 0 0 0 0 0 0 0 0 0 0 0 0 0 0 0.25 0"/>
<feBlend mode="normal" in2="BackgroundImageFix" result="effect1_dropShadow_12_76"/>
<feBlend mode="normal" in="SourceGraphic" in2="effect1_dropShadow_12_76" result="shape"/>
</filter>
</defs>
</svg>
