<svg width="177" height="83" viewBox="0 0 177 83" fill="none" xmlns="http://www.w3.org/2000/svg">
<g id="Vector 16" filter="url(#filter0_d_6_24)">
<path d="M162 6.99995C168.5 9.49995 172.5 30.4999 172.5 30.4999L157 38.5L139.5 47.5C139.5 47.5 120.5 56.5 116.5 58.5C112.5 60.5 99 64.4999 99 64.4999C99 64.4999 85 38.4999 86.5 30.4999C88 22.4999 155.5 4.49995 162 6.99995Z" fill="white"/>
<path d="M84.5 67.4999C84.5 67.4999 80.5 37.4999 73 34.4999C65.5 31.4999 10 38.4999 6 44.9999C2 51.4999 9 80.5 9 80.5L47.5 75L66.5 71.5L84.5 67.4999Z" fill="white"/>
</g>
<defs>
<filter id="filter0_d_6_24" x="0.765442" y="0.763855" width="175.735" height="81.7361" filterUnits="userSpaceOnUse" color-interpolation-filters="sRGB">
<feFlood flood-opacity="0" result="BackgroundImageFix"/>
<feColorMatrix in="SourceAlpha" type="matrix" values="0 0 0 0 0 0 0 0 0 0 0 0 0 0 0 0 0 0 127 0" result="hardAlpha"/>
<feOffset dy="-2"/>
<feGaussianBlur stdDeviation="2"/>
<feComposite in2="hardAlpha" operator="out"/>
<feColorMatrix type="matrix" values="0 0 0 0 0 0 0 0 0 0 0 0 0 0 0 0 0 0 0.25 0"/>
<feBlend mode="normal" in2="BackgroundImageFix" result="effect1_dropShadow_6_24"/>
<feBlend mode="normal" in="SourceGraphic" in2="effect1_dropShadow_6_24" result="shape"/>
</filter>
</defs>
</svg>
